<?xml version="1.0" encoding="utf-8"?>
<!-- Generator: Adobe Illustrator 24.1.0, SVG Export Plug-In . SVG Version: 6.00 Build 0)  -->
<!DOCTYPE svg PUBLIC "-//W3C//DTD SVG 1.1//EN" "http://www.w3.org/Graphics/SVG/1.1/DTD/svg11.dtd" [
	<!ENTITY ns_extend "http://ns.adobe.com/Extensibility/1.0/">
	<!ENTITY ns_ai "http://ns.adobe.com/AdobeIllustrator/10.0/">
	<!ENTITY ns_graphs "http://ns.adobe.com/Graphs/1.0/">
	<!ENTITY ns_vars "http://ns.adobe.com/Variables/1.0/">
	<!ENTITY ns_imrep "http://ns.adobe.com/ImageReplacement/1.0/">
	<!ENTITY ns_sfw "http://ns.adobe.com/SaveForWeb/1.0/">
	<!ENTITY ns_custom "http://ns.adobe.com/GenericCustomNamespace/1.0/">
	<!ENTITY ns_adobe_xpath "http://ns.adobe.com/XPath/1.0/">
]>
<svg version="1.1" id="incube_x5F_logo" xmlns:x="&ns_extend;" xmlns:i="&ns_ai;" xmlns:graph="&ns_graphs;"
	 xmlns="http://www.w3.org/2000/svg" xmlns:xlink="http://www.w3.org/1999/xlink" x="0px" y="0px" viewBox="0 0 327 413.3"
	 style="enable-background:new 0 0 327 413.3;" xml:space="preserve">
<style type="text/css">
	.st0{fill:url(#SVGID_1_);}
	.st1{fill:url(#SVGID_2_);}
	.st2{fill:#FFFFFF;}
</style>
<metadata>
	<sfw  xmlns="&ns_sfw;">
		<slices></slices>
		<sliceSourceBounds  bottomLeftOrigin="true" height="413.3" width="327" x="106.5" y="-291.1"></sliceSourceBounds>
	</sfw>
</metadata>
<g>
	<g>
		
			<linearGradient id="SVGID_1_" gradientUnits="userSpaceOnUse" x1="241.367" y1="201.0852" x2="86.175" y2="356.2783" gradientTransform="matrix(1 0 0 -1 0 396.273)">
			<stop  offset="0" style="stop-color:#88B13F"/>
			<stop  offset="0.2293" style="stop-color:#85B040"/>
			<stop  offset="0.4134" style="stop-color:#7EAF41"/>
			<stop  offset="0.5819" style="stop-color:#70AF43"/>
			<stop  offset="0.741" style="stop-color:#5BAE53"/>
			<stop  offset="0.8922" style="stop-color:#42AD73"/>
			<stop  offset="1" style="stop-color:#2CAC8D"/>
		</linearGradient>
		<polygon class="st0" points="55.5,70.6 145.9,141 163.8,272.8 181.8,140.9 272.1,70.7 164,115.4 164,115.4 		"/>
		
			<linearGradient id="SVGID_2_" gradientUnits="userSpaceOnUse" x1="271.8663" y1="171.0031" x2="55.7046" y2="387.1648" gradientTransform="matrix(1 0 0 -1 0 396.273)">
			<stop  offset="0" style="stop-color:#88B13F"/>
			<stop  offset="0.2293" style="stop-color:#85B040"/>
			<stop  offset="0.4134" style="stop-color:#7EAF41"/>
			<stop  offset="0.5819" style="stop-color:#70AF43"/>
			<stop  offset="0.741" style="stop-color:#5BAE53"/>
			<stop  offset="0.8922" style="stop-color:#42AD73"/>
			<stop  offset="1" style="stop-color:#2CAC8D"/>
		</linearGradient>
		<path class="st1" d="M304.9,45.8L163.8,0l-5.3,1.7l-135.6,44l-5.7,1.8l29.8,169.1l116.5,101.3l0.2,0.2l116.7-101.5l29.8-169.1
			L304.9,45.8z M163.8,28.4L279.5,66l-24.1,136.5l-91.7,79.7l-91.7-79.7L48.1,66L163.8,28.4z"/>
	</g>
	<g>
		<rect y="348.1" class="st2" width="12.6" height="65.1"/>
		<path class="st2" d="M187.3,348.1l0.1,50.7c0,0,0,0,0,0c0,0.9-0.7,1.6-1.6,1.7v0l-25.9,0c-1,0-1.8-0.8-1.8-1.8v-50.7h-12.6V399h0
			c0.1,7.8,6.6,14.1,14.4,14.1l0,0h0l0,0h25.7l0,0h0.2v0c7.8-0.1,14.2-6.5,14.2-14.4l-0.1-50.7L187.3,348.1L187.3,348.1z"/>
		<path class="st2" d="M250.2,348L250.2,348l-41.3,0v0.1v12.5v39.7v12.5v0.1l41.3,0v0c7.9-0.1,14.2-6.4,14.3-14.3l0,0v-11.1
			c0,0,0,0,0,0c0-3.3-1.1-5.6-3-7.1c1.9-1.5,3-3.7,3-7l0,0v-0.1v0v-11c0,0,0,0,0,0v0l0,0C264.5,354.5,258.1,348.1,250.2,348z
			 M251.9,398.6L251.9,398.6L251.9,398.6c0,1-0.8,1.7-1.7,1.8l-28.5,0v-14.6h28.5v0l0,0c1,0,1.8,0.8,1.8,1.8c0,0,0,0,0,0l0,0V398.6z
			 M251.9,373.4L251.9,373.4C251.9,373.4,251.9,373.4,251.9,373.4c0,1-0.8,1.8-1.8,1.8l0,0v0l-28.5,0v-14.6h28.5l0,0l0,0
			c1,0,1.8,0.8,1.8,1.8c0,0,0,0,0,0l0,0V373.4z"/>
		<path class="st2" d="M62,348.1L62,348.1l-0.3,0l-40.1,0v0.1v12.5v1.6v50.9h12.6v-50.6c0-1,0.9-1.8,1.8-1.8l25.9,0v0
			c0.9,0.1,1.5,0.9,1.5,1.7l0,0l-0.1,50.7h12.6l0.1-50.7C76.2,354.6,69.9,348.2,62,348.1z"/>
		<path class="st2" d="M122.9,348.1L122.9,348.1l-0.2,0l0,0H99.1v0c-7.9,0-14.3,6.4-14.4,14.4l0,0v0v0v36.3l0,0
			c0,7.9,6.4,14.3,14.4,14.3l0,0h0c0,0,0,0,0,0h23.6l0,0h0.2v0c7.8-0.1,14.1-6.5,14.2-14.3l0,0v-9.2l-12.6,4.6v4.6l0,0c0,0,0,0,0,0
			c0,0.9-0.7,1.6-1.6,1.7v0l-23.7,0c-1,0-1.8-0.8-1.8-1.7c0,0,0,0,0,0l0,0v-36.3l0,0c0,0,0,0,0,0c0-1,0.8-1.7,1.7-1.7l0,0l23.8,0
			c0.9,0.1,1.6,0.8,1.6,1.7l0,0l0,0v4.7l12.6-4.6v-0.1l0,0C137,354.6,130.7,348.2,122.9,348.1z"/>
		<path class="st2" d="M327,362.3c0-1.5-0.2-3-0.7-4.3l0,0c0,0,0,0,0,0c-0.1-0.3-0.2-0.6-0.3-0.9c0-0.1-0.1-0.2-0.1-0.2
			c0-0.1-0.1-0.2-0.1-0.3c0-0.1-0.1-0.2-0.1-0.2c-0.1-0.1-0.1-0.2-0.2-0.3c0-0.1-0.1-0.2-0.1-0.2c-0.1-0.1-0.1-0.2-0.2-0.3
			c0-0.1-0.1-0.1-0.1-0.2c-0.1-0.2-0.2-0.4-0.4-0.6c-0.1-0.1-0.1-0.1-0.1-0.2c-0.1-0.1-0.1-0.2-0.2-0.3c-0.1-0.1-0.1-0.2-0.2-0.2
			c-0.1-0.1-0.2-0.2-0.2-0.3c-0.1-0.1-0.1-0.1-0.2-0.2c-0.1-0.1-0.1-0.2-0.2-0.3c-0.1-0.1-0.1-0.1-0.2-0.2c-0.1-0.2-0.3-0.3-0.4-0.4
			c-0.1-0.1-0.1-0.1-0.2-0.2c-0.1-0.1-0.2-0.2-0.2-0.2c-0.1-0.1-0.2-0.1-0.2-0.2c-0.1-0.1-0.2-0.1-0.2-0.2c-0.1-0.1-0.2-0.1-0.2-0.2
			c-0.1-0.1-0.2-0.1-0.2-0.2c-0.1-0.1-0.2-0.1-0.3-0.2c-0.1-0.1-0.2-0.2-0.3-0.2c-0.1-0.1-0.3-0.2-0.4-0.3c-0.1-0.1-0.2-0.1-0.2-0.2
			c-0.1-0.1-0.2-0.1-0.3-0.2c-0.1,0-0.2-0.1-0.2-0.2c-0.1-0.1-0.2-0.1-0.3-0.2c-0.1-0.1-0.2-0.1-0.3-0.1c-0.1-0.1-0.2-0.1-0.3-0.2
			c-0.1,0-0.1-0.1-0.2-0.1c-0.2-0.1-0.4-0.2-0.5-0.2c-0.1,0-0.2-0.1-0.2-0.1c-0.1,0-0.2-0.1-0.4-0.1c-0.1,0-0.2-0.1-0.3-0.1
			c-0.1,0-0.2-0.1-0.4-0.1c-0.1,0-0.2-0.1-0.3-0.1c-0.1,0-0.2-0.1-0.4-0.1c-0.1,0-0.2,0-0.2-0.1c-0.2-0.1-0.4-0.1-0.6-0.1
			c-0.1,0-0.1,0-0.2,0c-0.1,0-0.3-0.1-0.5-0.1c-0.1,0-0.2,0-0.3,0c-0.1,0-0.3,0-0.4-0.1c-0.1,0-0.2,0-0.3,0c-0.1,0-0.3,0-0.4,0
			c-0.1,0-0.2,0-0.3,0c-0.2,0-0.4,0-0.5,0c0,0-0.1,0-0.1,0h0l0,0l-25.4,0v0l0,0c-7.9,0-14.3,6.4-14.4,14.2h0v0.1v0v0.2v36.3v0h0
			c0,7.9,6.5,14.3,14.4,14.3l0,0l0,0h25.4l0,0h0h0.1l0,0c7.8-0.1,14.2-6.4,14.2-14.3h0v-0.1l0,0c0,0,0,0,0,0v-4.6v-4.6l-12.6,4.6
			v4.7c0,1-0.8,1.7-1.7,1.7c0,0,0,0,0,0v0l-25.4,0v0l0,0c-0.9,0-1.7-0.7-1.7-1.7h0v-9.6l41.5-15.1h0L327,362.3L327,362.3L327,362.3
			L327,362.3z M285.5,362.2c0.1-0.9,0.8-1.6,1.7-1.6l0,0v0l25.5,0c0.6,0,1.2,0.4,1.5,0.9c0.1,0.2,0.2,0.5,0.2,0.8l0,0v5.2
			l-28.9,10.5L285.5,362.2L285.5,362.2z"/>
	</g>
</g>
</svg>
