<?xml version="1.0" standalone="no"?>
<!DOCTYPE svg PUBLIC "-//W3C//DTD SVG 20010904//EN"
 "http://www.w3.org/TR/2001/REC-SVG-20010904/DTD/svg10.dtd">
<svg version="1.0" xmlns="http://www.w3.org/2000/svg"
 width="636.000000pt" height="636.000000pt" viewBox="0 0 636.000000 636.000000"
 preserveAspectRatio="xMidYMid meet">
<metadata>
Created by potrace 1.11, written by Peter Selinger 2001-2013
</metadata>
<g transform="translate(0.000000,636.000000) scale(0.100000,-0.100000)"
fill="#000000" stroke="none">
<path d="M2965 6293 c-110 -35 -209 -68 -220 -73 -11 -5 -51 -18 -90 -30 -38
-12 -77 -24 -85 -27 -8 -3 -19 -7 -25 -8 -14 -4 -297 -95 -315 -102 -8 -4 -18
-7 -22 -8 -5 -2 -9 -3 -10 -5 -2 -1 -10 -3 -18 -5 -14 -3 -200 -63 -480 -155
-224 -73 -475 -154 -480 -155 -3 -1 -61 -19 -130 -42 -203 -67 -564 -185 -575
-187 -5 -2 -18 -6 -27 -10 -9 -4 -25 -9 -35 -11 -10 -2 -18 -4 -18 -5 0 -1 -7
-3 -15 -5 -8 -2 -49 -15 -90 -28 -86 -28 -84 -23 -54 -177 2 -14 7 -38 9 -55
3 -16 10 -54 16 -84 6 -30 12 -64 14 -75 1 -12 5 -34 8 -51 3 -16 13 -70 22
-120 8 -49 17 -103 20 -120 3 -16 10 -53 16 -81 5 -28 12 -66 14 -85 4 -29 35
-205 49 -279 9 -47 37 -205 41 -235 3 -16 7 -41 10 -55 3 -14 10 -54 16 -90 5
-36 14 -83 19 -105 4 -22 11 -60 14 -85 7 -50 13 -83 20 -108 3 -9 7 -35 11
-57 8 -55 23 -145 29 -175 3 -13 8 -42 12 -65 7 -46 12 -70 14 -70 1 0 3 -13
4 -30 3 -28 39 -236 51 -295 8 -39 27 -143 30 -165 1 -11 6 -36 9 -55 4 -19
20 -114 37 -210 16 -96 34 -195 39 -220 5 -25 12 -58 14 -74 10 -59 20 -121
21 -131 4 -37 22 -66 63 -102 26 -22 121 -105 212 -183 91 -79 194 -169 230
-200 88 -77 154 -135 226 -196 52 -45 166 -144 259 -225 55 -48 130 -113 194
-169 35 -30 69 -59 75 -65 6 -5 45 -39 86 -75 41 -36 88 -77 105 -91 16 -15
71 -62 120 -104 50 -43 92 -82 93 -87 2 -4 10 -8 18 -8 8 0 14 -3 14 -8 0 -4
37 -39 82 -77 44 -39 93 -81 108 -95 15 -14 47 -42 71 -62 24 -21 53 -45 65
-55 25 -21 142 -124 158 -138 6 -6 43 -37 81 -70 39 -33 73 -64 77 -69 6 -9
46 25 238 194 76 67 143 125 224 195 32 28 68 59 81 70 12 11 35 31 51 45 103
88 262 226 275 239 9 9 27 25 40 36 51 43 172 147 206 178 20 17 41 37 47 42
6 6 43 37 81 70 39 33 72 62 75 65 3 3 34 30 70 60 35 30 82 71 103 90 21 19
50 44 64 55 14 11 40 34 58 50 18 17 59 53 91 80 32 28 68 59 80 70 12 11 41
36 64 55 23 19 58 50 78 68 21 18 57 50 82 70 24 20 54 46 65 57 11 12 49 45
85 76 197 166 183 147 206 279 8 47 16 94 18 105 2 11 7 38 11 60 3 22 8 47
10 55 2 8 7 33 10 55 3 23 7 52 10 65 11 54 27 146 30 165 1 11 15 88 29 170
68 380 71 395 80 460 3 17 7 41 10 55 3 13 8 42 12 64 3 22 7 43 9 46 1 3 6
25 9 50 3 25 8 56 11 70 8 41 44 242 50 280 3 19 12 73 21 120 9 47 17 96 19
110 2 14 13 75 24 135 11 61 23 126 26 145 3 19 10 58 15 85 6 28 12 64 14 80
5 34 23 139 41 225 4 23 8 45 21 125 2 17 9 53 14 80 11 59 17 90 35 205 3 19
10 55 15 80 5 25 12 61 15 80 2 19 7 47 10 62 6 29 1 35 -36 42 -13 2 -51 14
-84 26 -33 12 -64 23 -70 24 -13 2 -425 135 -445 143 -8 3 -20 7 -26 8 -7 2
-38 12 -70 23 -33 11 -174 57 -314 103 -140 45 -309 100 -375 121 -66 22 -124
41 -130 42 -5 2 -17 6 -25 9 -8 3 -80 26 -160 52 -200 63 -762 245 -780 252
-8 3 -19 7 -25 9 -5 1 -86 27 -180 58 -93 30 -181 57 -195 60 -15 3 -106 -22
-225 -61z m330 -539 c61 -19 117 -37 125 -39 25 -6 84 -27 102 -36 10 -5 26
-9 36 -9 10 0 22 -3 26 -7 3 -4 12 -8 19 -9 7 -1 39 -11 72 -22 71 -25 657
-215 668 -218 4 -1 8 -2 10 -4 1 -1 9 -3 17 -5 17 -4 417 -133 440 -142 17 -7
12 -6 70 -22 25 -7 54 -17 65 -21 21 -9 217 -74 225 -75 20 -2 307 -99 314
-106 5 -4 4 -32 -2 -66 -6 -32 -14 -74 -17 -93 -8 -45 -14 -79 -20 -110 -2
-13 -7 -42 -11 -65 -3 -22 -16 -98 -29 -170 -13 -71 -27 -146 -30 -165 -3 -19
-8 -46 -10 -60 -13 -61 -15 -77 -20 -110 -3 -19 -7 -46 -10 -60 -3 -14 -7 -38
-10 -55 -2 -16 -6 -41 -9 -55 -3 -14 -19 -104 -36 -200 -17 -96 -33 -186 -35
-200 -7 -35 -15 -80 -20 -115 -2 -16 -7 -41 -10 -55 -5 -24 -9 -48 -20 -115
-3 -16 -9 -52 -14 -80 -5 -27 -12 -66 -16 -85 -3 -19 -12 -71 -20 -115 -25
-141 -31 -174 -39 -225 -5 -33 -9 -51 -21 -110 -3 -14 -7 -43 -11 -65 -3 -22
-7 -47 -9 -55 -2 -8 -7 -31 -10 -50 -3 -19 -8 -47 -11 -62 -3 -15 -7 -39 -9
-55 -14 -103 -25 -135 -57 -161 -18 -15 -46 -39 -63 -54 -16 -15 -50 -45 -75
-66 -261 -226 -395 -342 -439 -382 -26 -23 -94 -82 -151 -130 -33 -28 -100
-86 -125 -109 -11 -10 -58 -51 -105 -91 -47 -40 -87 -76 -90 -79 -3 -3 -34
-31 -70 -61 -36 -30 -70 -59 -76 -65 -6 -5 -37 -32 -69 -60 -32 -27 -69 -59
-81 -70 -12 -11 -48 -42 -80 -70 -32 -27 -81 -70 -109 -95 -28 -25 -67 -58
-86 -74 -19 -16 -66 -58 -106 -94 l-72 -64 -53 44 c-28 23 -59 50 -68 58 -9 8
-45 40 -80 70 -35 30 -71 62 -80 70 -9 8 -47 42 -85 75 -39 33 -75 64 -81 70
-6 5 -32 28 -59 50 -26 22 -55 47 -64 55 -9 9 -47 43 -86 75 -38 33 -82 71
-96 85 -15 14 -46 41 -69 59 -23 19 -48 40 -54 46 -6 6 -45 40 -86 75 -41 35
-77 67 -80 70 -3 3 -39 34 -80 69 -41 36 -79 70 -85 75 -5 6 -26 24 -45 40
-19 15 -61 51 -94 80 -95 83 -158 138 -226 196 -35 30 -71 62 -79 70 -9 9 -45
40 -81 70 -71 60 -110 97 -111 108 -2 22 -7 52 -13 87 -4 22 -9 54 -12 70 -2
17 -9 54 -15 84 -6 30 -12 64 -14 75 -6 42 -16 102 -22 131 -3 17 -7 39 -9 50
-1 11 -12 74 -24 140 -12 66 -23 129 -25 140 -4 26 -15 91 -21 119 -2 11 -7
37 -10 56 -3 19 -14 82 -24 140 -11 58 -21 121 -24 140 -3 19 -8 46 -11 60 -3
14 -8 41 -11 60 -6 40 -41 240 -50 285 -3 17 -7 39 -9 50 -2 17 -27 158 -40
235 -3 14 -9 52 -15 85 -5 33 -12 70 -14 81 -2 12 -7 37 -10 55 -3 19 -8 45
-10 59 -3 14 -12 66 -20 115 -9 50 -18 101 -21 115 -3 14 -7 39 -9 55 -3 17
-7 42 -11 55 -8 34 -17 98 -18 139 l-2 34 180 59 c99 32 243 79 319 104 77 25
148 47 158 49 10 2 24 7 31 12 6 4 17 8 22 9 12 2 204 63 225 71 8 3 20 7 25
8 6 1 33 10 60 20 28 9 57 18 65 20 8 2 103 33 210 68 107 36 341 112 520 170
179 58 359 117 400 131 41 13 80 25 85 25 6 1 60 -15 120 -35z"/>
<path d="M1114 4873 c84 -67 101 -81 181 -142 22 -17 46 -36 53 -42 7 -6 52
-41 100 -77 48 -36 89 -68 92 -72 3 -3 43 -35 90 -70 47 -36 90 -69 96 -75 6
-5 26 -21 44 -35 18 -14 47 -36 65 -50 18 -14 47 -36 65 -50 18 -14 38 -29 44
-35 6 -5 40 -32 76 -60 36 -27 67 -52 70 -55 3 -3 21 -17 40 -30 19 -14 44
-32 55 -41 26 -23 304 -239 395 -309 40 -30 77 -60 84 -65 11 -11 132 -105
148 -116 10 -7 16 -33 23 -106 2 -30 6 -57 9 -61 2 -4 6 -34 10 -67 9 -81 14
-123 22 -170 4 -22 8 -49 9 -60 9 -86 22 -187 25 -195 1 -3 2 -7 2 -10 0 -3 6
-51 14 -105 7 -55 16 -122 20 -150 3 -27 8 -61 10 -75 2 -14 7 -47 10 -75 3
-27 7 -57 9 -65 3 -8 7 -44 11 -80 3 -36 8 -68 10 -71 1 -3 6 -28 9 -56 3 -27
7 -58 9 -69 2 -10 7 -48 11 -84 6 -61 9 -81 19 -147 3 -16 8 -53 11 -83 4 -30
10 -75 15 -100 4 -25 8 -52 8 -60 0 -17 10 -93 17 -130 2 -14 7 -43 10 -65 2
-22 7 -58 10 -80 3 -22 8 -58 10 -80 3 -22 6 -49 9 -60 4 -20 12 -82 21 -164
3 -23 7 -46 9 -50 3 -4 6 -28 7 -54 4 -62 15 -48 24 28 6 60 13 109 20 154 3
14 7 52 11 85 3 34 7 63 9 66 2 3 6 34 10 70 4 36 9 74 11 85 2 11 6 38 9 60
3 22 8 56 11 75 2 19 6 51 9 70 2 19 6 49 9 65 3 17 8 55 11 85 4 30 8 69 10
85 2 17 6 41 9 55 3 14 8 48 11 75 3 28 10 77 15 110 5 33 12 83 15 110 10 80
15 119 20 145 3 14 7 48 10 75 2 28 6 59 9 71 2 12 7 45 11 75 3 30 8 65 10
79 2 14 6 44 9 68 3 23 9 61 12 85 8 55 10 72 18 137 4 30 9 62 11 70 2 8 7
44 10 80 4 36 9 72 10 82 2 9 6 38 10 65 4 26 9 59 11 73 2 14 6 48 9 75 12
107 15 112 93 170 37 27 74 55 82 62 8 8 53 43 100 79 47 35 92 71 101 78 9 8
54 42 100 77 46 35 86 66 89 69 3 3 34 28 70 55 36 27 70 54 77 60 6 5 24 20
40 32 15 12 44 34 65 50 20 15 47 36 60 45 12 9 37 28 53 42 39 32 233 182
264 204 13 9 28 22 35 27 6 6 29 24 51 40 22 17 42 32 45 35 3 3 106 84 230
179 265 205 269 209 215 186 -22 -9 -51 -21 -65 -26 -14 -5 -34 -14 -45 -19
-67 -30 -243 -100 -253 -100 -7 0 -12 -4 -12 -10 0 -5 -3 -9 -7 -9 -5 1 -11 0
-15 -1 -5 -1 -11 -3 -15 -4 -5 -1 -26 -10 -48 -20 -22 -10 -87 -37 -145 -61
-285 -116 -407 -167 -425 -175 -31 -15 -239 -101 -250 -104 -5 -2 -21 -8 -35
-13 -14 -6 -133 -56 -265 -111 -132 -54 -301 -125 -376 -156 -74 -31 -144 -56
-155 -56 -10 0 -107 37 -214 81 -307 129 -412 172 -420 173 -3 1 -9 4 -15 8
-5 3 -41 18 -80 33 -81 32 -112 45 -177 74 -26 11 -50 21 -53 21 -3 0 -24 9
-48 19 -23 10 -132 56 -242 101 -110 45 -213 87 -230 95 -16 7 -82 34 -145 59
-119 48 -123 50 -202 85 -26 12 -51 21 -54 21 -5 0 -26 9 -109 45 -97 42 -153
65 -159 65 -4 0 31 -30 78 -67z"/>
</g>
</svg>
